<mxfile host="app.diagrams.net" modified="2021-10-15T06:31:05.359Z" agent="5.0 (Windows NT 10.0; Win64; x64) AppleWebKit/537.36 (KHTML, like Gecko) Chrome/94.0.4606.81 Safari/537.36" etag="aHFFWxRdVOInbjVc-YaY" version="15.5.2" type="github">
  <diagram id="6iDU32mY2Nc6CBhis08E" name="Page-1">
    <mxGraphModel dx="2297" dy="750" grid="1" gridSize="10" guides="1" tooltips="1" connect="1" arrows="1" fold="1" page="1" pageScale="1" pageWidth="850" pageHeight="1100" math="0" shadow="0">
      <root>
        <mxCell id="0" />
        <mxCell id="1" parent="0" />
        <mxCell id="aXDBIrbwVsfuyC3R2ou0-14" style="edgeStyle=orthogonalEdgeStyle;rounded=0;orthogonalLoop=1;jettySize=auto;html=1;exitX=0.5;exitY=1;exitDx=0;exitDy=0;entryX=0.75;entryY=0;entryDx=0;entryDy=0;strokeColor=#00CC66;strokeWidth=4;" edge="1" parent="1" source="aXDBIrbwVsfuyC3R2ou0-1" target="aXDBIrbwVsfuyC3R2ou0-7">
          <mxGeometry relative="1" as="geometry" />
        </mxCell>
        <mxCell id="aXDBIrbwVsfuyC3R2ou0-15" style="edgeStyle=orthogonalEdgeStyle;rounded=0;orthogonalLoop=1;jettySize=auto;html=1;exitX=0.5;exitY=1;exitDx=0;exitDy=0;entryX=0.25;entryY=0;entryDx=0;entryDy=0;strokeColor=#00CC66;strokeWidth=4;" edge="1" parent="1" source="aXDBIrbwVsfuyC3R2ou0-1" target="aXDBIrbwVsfuyC3R2ou0-8">
          <mxGeometry relative="1" as="geometry" />
        </mxCell>
        <mxCell id="aXDBIrbwVsfuyC3R2ou0-24" style="edgeStyle=orthogonalEdgeStyle;rounded=0;orthogonalLoop=1;jettySize=auto;html=1;exitX=0.5;exitY=1;exitDx=0;exitDy=0;strokeColor=#00CC66;strokeWidth=4;" edge="1" parent="1" source="aXDBIrbwVsfuyC3R2ou0-1" target="aXDBIrbwVsfuyC3R2ou0-23">
          <mxGeometry relative="1" as="geometry" />
        </mxCell>
        <mxCell id="aXDBIrbwVsfuyC3R2ou0-1" value="N10.py" style="rounded=1;whiteSpace=wrap;html=1;fillColor=#6d8764;strokeColor=#3A5431;fontColor=#ffffff;" vertex="1" parent="1">
          <mxGeometry x="320" y="300" width="120" height="60" as="geometry" />
        </mxCell>
        <mxCell id="aXDBIrbwVsfuyC3R2ou0-6" style="edgeStyle=orthogonalEdgeStyle;rounded=0;orthogonalLoop=1;jettySize=auto;html=1;fillColor=#ffe6cc;strokeColor=#D79B00;strokeWidth=4;" edge="1" parent="1">
          <mxGeometry relative="1" as="geometry">
            <mxPoint x="740" y="40" as="sourcePoint" />
            <mxPoint x="740" y="110" as="targetPoint" />
            <Array as="points">
              <mxPoint x="740" y="70" />
              <mxPoint x="740" y="70" />
            </Array>
          </mxGeometry>
        </mxCell>
        <mxCell id="aXDBIrbwVsfuyC3R2ou0-17" style="edgeStyle=orthogonalEdgeStyle;rounded=0;orthogonalLoop=1;jettySize=auto;html=1;exitX=0.5;exitY=1;exitDx=0;exitDy=0;entryX=0.5;entryY=0;entryDx=0;entryDy=0;strokeColor=#D79B00;strokeWidth=4;" edge="1" parent="1" source="aXDBIrbwVsfuyC3R2ou0-7" target="aXDBIrbwVsfuyC3R2ou0-16">
          <mxGeometry relative="1" as="geometry" />
        </mxCell>
        <mxCell id="aXDBIrbwVsfuyC3R2ou0-7" value="&lt;div style=&quot;color: rgb(212 , 212 , 212) ; background-color: rgb(30 , 30 , 30) ; font-family: &amp;#34;consolas&amp;#34; , &amp;#34;courier new&amp;#34; , monospace ; font-size: 14px ; line-height: 19px&quot;&gt;&lt;span style=&quot;color: #569cd6&quot;&gt;{&lt;/span&gt;&lt;span style=&quot;color: #9cdcfe&quot;&gt;openo_testno&lt;/span&gt;&lt;span style=&quot;color: #569cd6&quot;&gt;}&lt;/span&gt;&lt;span style=&quot;color: #ce9178&quot;&gt;_W.csv&quot;&lt;/span&gt;&lt;/div&gt;" style="rounded=1;whiteSpace=wrap;html=1;" vertex="1" parent="1">
          <mxGeometry x="170" y="430" width="180" height="60" as="geometry" />
        </mxCell>
        <mxCell id="aXDBIrbwVsfuyC3R2ou0-18" style="edgeStyle=orthogonalEdgeStyle;rounded=0;orthogonalLoop=1;jettySize=auto;html=1;exitX=0.25;exitY=1;exitDx=0;exitDy=0;entryX=0.5;entryY=0;entryDx=0;entryDy=0;strokeColor=#D79B00;strokeWidth=4;" edge="1" parent="1" source="aXDBIrbwVsfuyC3R2ou0-8" target="aXDBIrbwVsfuyC3R2ou0-16">
          <mxGeometry relative="1" as="geometry" />
        </mxCell>
        <mxCell id="aXDBIrbwVsfuyC3R2ou0-51" style="edgeStyle=orthogonalEdgeStyle;rounded=0;orthogonalLoop=1;jettySize=auto;html=1;exitX=0.5;exitY=1;exitDx=0;exitDy=0;entryX=0;entryY=0.5;entryDx=0;entryDy=0;strokeColor=#D79B00;strokeWidth=4;" edge="1" parent="1" source="aXDBIrbwVsfuyC3R2ou0-8" target="aXDBIrbwVsfuyC3R2ou0-50">
          <mxGeometry relative="1" as="geometry" />
        </mxCell>
        <mxCell id="aXDBIrbwVsfuyC3R2ou0-62" style="edgeStyle=orthogonalEdgeStyle;rounded=0;orthogonalLoop=1;jettySize=auto;html=1;exitX=1;exitY=0.5;exitDx=0;exitDy=0;entryX=0;entryY=0.5;entryDx=0;entryDy=0;strokeColor=#D79B00;strokeWidth=4;" edge="1" parent="1" source="aXDBIrbwVsfuyC3R2ou0-8" target="aXDBIrbwVsfuyC3R2ou0-58">
          <mxGeometry relative="1" as="geometry" />
        </mxCell>
        <mxCell id="aXDBIrbwVsfuyC3R2ou0-8" value="&lt;div style=&quot;color: rgb(212 , 212 , 212) ; background-color: rgb(30 , 30 , 30) ; font-family: &amp;#34;consolas&amp;#34; , &amp;#34;courier new&amp;#34; , monospace ; font-size: 14px ; line-height: 19px&quot;&gt;&lt;div style=&quot;font-family: &amp;#34;consolas&amp;#34; , &amp;#34;courier new&amp;#34; , monospace ; line-height: 19px&quot;&gt;&lt;span style=&quot;color: #569cd6&quot;&gt;{&lt;/span&gt;&lt;span style=&quot;color: #9cdcfe&quot;&gt;openo_testno&lt;/span&gt;&lt;span style=&quot;color: #569cd6&quot;&gt;}&lt;/span&gt;&lt;span style=&quot;color: #ce9178&quot;&gt;_H.csv&lt;/span&gt;&lt;/div&gt;&lt;/div&gt;" style="rounded=1;whiteSpace=wrap;html=1;" vertex="1" parent="1">
          <mxGeometry x="400" y="430" width="180" height="60" as="geometry" />
        </mxCell>
        <mxCell id="aXDBIrbwVsfuyC3R2ou0-13" style="edgeStyle=orthogonalEdgeStyle;rounded=0;orthogonalLoop=1;jettySize=auto;html=1;fillColor=#ffe6cc;strokeColor=#00CC66;strokeWidth=4;" edge="1" parent="1">
          <mxGeometry relative="1" as="geometry">
            <mxPoint x="740" y="130" as="sourcePoint" />
            <mxPoint x="740" y="200" as="targetPoint" />
            <Array as="points">
              <mxPoint x="740" y="180" />
              <mxPoint x="740" y="180" />
            </Array>
          </mxGeometry>
        </mxCell>
        <mxCell id="aXDBIrbwVsfuyC3R2ou0-22" style="edgeStyle=orthogonalEdgeStyle;rounded=0;orthogonalLoop=1;jettySize=auto;html=1;exitX=0.5;exitY=1;exitDx=0;exitDy=0;strokeColor=#00CC66;strokeWidth=4;" edge="1" parent="1" source="aXDBIrbwVsfuyC3R2ou0-16" target="aXDBIrbwVsfuyC3R2ou0-21">
          <mxGeometry relative="1" as="geometry" />
        </mxCell>
        <mxCell id="aXDBIrbwVsfuyC3R2ou0-16" value="N30.py" style="rounded=1;whiteSpace=wrap;html=1;fillColor=#6d8764;strokeColor=#3A5431;fontColor=#ffffff;" vertex="1" parent="1">
          <mxGeometry x="290" y="550" width="120" height="60" as="geometry" />
        </mxCell>
        <mxCell id="aXDBIrbwVsfuyC3R2ou0-25" style="edgeStyle=orthogonalEdgeStyle;rounded=0;orthogonalLoop=1;jettySize=auto;html=1;strokeColor=#D79B00;strokeWidth=4;" edge="1" parent="1" source="aXDBIrbwVsfuyC3R2ou0-19" target="aXDBIrbwVsfuyC3R2ou0-16">
          <mxGeometry relative="1" as="geometry" />
        </mxCell>
        <mxCell id="aXDBIrbwVsfuyC3R2ou0-19" value="&lt;div style=&quot;background-color: rgb(30 , 30 , 30) ; font-size: 14px ; line-height: 19px&quot;&gt;&lt;font color=&quot;#4ec9b0&quot; face=&quot;consolas, courier new, monospace&quot;&gt;output/PLY/&lt;/font&gt;&lt;span style=&quot;color: rgb(206 , 145 , 120) ; font-family: &amp;#34;consolas&amp;#34; , &amp;#34;courier new&amp;#34; , monospace&quot;&gt;wfr_id&lt;/span&gt;&lt;span style=&quot;color: rgb(206 , 145 , 120) ; font-family: &amp;#34;consolas&amp;#34; , &amp;#34;courier new&amp;#34; , monospace&quot;&gt;/&lt;/span&gt;&lt;span style=&quot;color: rgb(86 , 156 , 214) ; font-family: &amp;#34;consolas&amp;#34; , &amp;#34;courier new&amp;#34; , monospace&quot;&gt;{&lt;/span&gt;&lt;span style=&quot;color: rgb(156 , 220 , 254) ; font-family: &amp;#34;consolas&amp;#34; , &amp;#34;courier new&amp;#34; , monospace&quot;&gt;openo&lt;/span&gt;&lt;span style=&quot;color: rgb(86 , 156 , 214) ; font-family: &amp;#34;consolas&amp;#34; , &amp;#34;courier new&amp;#34; , monospace&quot;&gt;}&lt;/span&gt;&lt;span style=&quot;color: rgb(206 , 145 , 120) ; font-family: &amp;#34;consolas&amp;#34; , &amp;#34;courier new&amp;#34; , monospace&quot;&gt;_&lt;/span&gt;&lt;span style=&quot;color: rgb(86 , 156 , 214) ; font-family: &amp;#34;consolas&amp;#34; , &amp;#34;courier new&amp;#34; , monospace&quot;&gt;{&lt;/span&gt;&lt;span style=&quot;color: rgb(156 , 220 , 254) ; font-family: &amp;#34;consolas&amp;#34; , &amp;#34;courier new&amp;#34; , monospace&quot;&gt;testno&lt;/span&gt;&lt;span style=&quot;color: rgb(86 , 156 , 214) ; font-family: &amp;#34;consolas&amp;#34; , &amp;#34;courier new&amp;#34; , monospace&quot;&gt;}&lt;/span&gt;&lt;span style=&quot;color: rgb(206 , 145 , 120) ; font-family: &amp;#34;consolas&amp;#34; , &amp;#34;courier new&amp;#34; , monospace&quot;&gt;.csv&quot;&lt;/span&gt;&lt;/div&gt;" style="rounded=1;whiteSpace=wrap;html=1;" vertex="1" parent="1">
          <mxGeometry x="-100" y="550" width="330" height="60" as="geometry" />
        </mxCell>
        <mxCell id="aXDBIrbwVsfuyC3R2ou0-42" style="edgeStyle=orthogonalEdgeStyle;rounded=0;orthogonalLoop=1;jettySize=auto;html=1;exitX=0.5;exitY=1;exitDx=0;exitDy=0;entryX=0.5;entryY=0;entryDx=0;entryDy=0;strokeColor=#D79B00;strokeWidth=4;" edge="1" parent="1" source="aXDBIrbwVsfuyC3R2ou0-21" target="aXDBIrbwVsfuyC3R2ou0-40">
          <mxGeometry relative="1" as="geometry" />
        </mxCell>
        <mxCell id="aXDBIrbwVsfuyC3R2ou0-53" style="edgeStyle=orthogonalEdgeStyle;rounded=0;orthogonalLoop=1;jettySize=auto;html=1;exitX=1;exitY=0.5;exitDx=0;exitDy=0;entryX=0;entryY=0.5;entryDx=0;entryDy=0;strokeColor=#D79B00;strokeWidth=4;" edge="1" parent="1" source="aXDBIrbwVsfuyC3R2ou0-21" target="aXDBIrbwVsfuyC3R2ou0-50">
          <mxGeometry relative="1" as="geometry" />
        </mxCell>
        <mxCell id="aXDBIrbwVsfuyC3R2ou0-21" value="&lt;div style=&quot;color: rgb(212 , 212 , 212) ; background-color: rgb(30 , 30 , 30) ; font-family: &amp;#34;consolas&amp;#34; , &amp;#34;courier new&amp;#34; , monospace ; font-size: 14px ; line-height: 19px&quot;&gt;&lt;span style=&quot;color: #569cd6&quot;&gt;{&lt;/span&gt;&lt;span style=&quot;color: #4ec9b0&quot;&gt;system_folder&lt;/span&gt;.&lt;span style=&quot;color: #9cdcfe&quot;&gt;DATAfolder&lt;/span&gt;&lt;span style=&quot;color: #569cd6&quot;&gt;}&lt;/span&gt;&lt;span style=&quot;color: #ce9178&quot;&gt;/cluster_waferid.csv&lt;/span&gt;&lt;/div&gt;" style="rounded=1;whiteSpace=wrap;html=1;" vertex="1" parent="1">
          <mxGeometry x="165" y="660" width="370" height="60" as="geometry" />
        </mxCell>
        <mxCell id="aXDBIrbwVsfuyC3R2ou0-23" value="&lt;div style=&quot;color: rgb(212 , 212 , 212) ; background-color: rgb(30 , 30 , 30) ; font-family: &amp;#34;consolas&amp;#34; , &amp;#34;courier new&amp;#34; , monospace ; font-size: 14px ; line-height: 19px&quot;&gt;&lt;span style=&quot;color: #9cdcfe&quot;&gt;FIGfolder&lt;/span&gt;, &lt;span style=&quot;color: #ce9178&quot;&gt;&quot;map_bin&quot;&lt;/span&gt;&lt;/div&gt;" style="rounded=1;whiteSpace=wrap;html=1;" vertex="1" parent="1">
          <mxGeometry x="-50" y="430" width="200" height="60" as="geometry" />
        </mxCell>
        <mxCell id="aXDBIrbwVsfuyC3R2ou0-30" style="edgeStyle=orthogonalEdgeStyle;rounded=0;orthogonalLoop=1;jettySize=auto;html=1;exitX=0.5;exitY=1;exitDx=0;exitDy=0;exitPerimeter=0;entryX=0.5;entryY=0;entryDx=0;entryDy=0;strokeColor=#D79B00;strokeWidth=4;" edge="1" parent="1" source="aXDBIrbwVsfuyC3R2ou0-29" target="aXDBIrbwVsfuyC3R2ou0-1">
          <mxGeometry relative="1" as="geometry" />
        </mxCell>
        <mxCell id="aXDBIrbwVsfuyC3R2ou0-29" value="&lt;div style=&quot;color: rgb(212 , 212 , 212) ; background-color: rgb(30 , 30 , 30) ; font-family: &amp;#34;consolas&amp;#34; , &amp;#34;courier new&amp;#34; , monospace ; font-size: 14px ; line-height: 19px&quot;&gt;&lt;span style=&quot;color: #dcdcaa&quot;&gt;get_by_openo_prodgrp_edate&lt;/span&gt;&lt;/div&gt;" style="strokeWidth=2;html=1;shape=mxgraph.flowchart.database;whiteSpace=wrap;" vertex="1" parent="1">
          <mxGeometry x="255" y="180" width="250" height="70" as="geometry" />
        </mxCell>
        <mxCell id="aXDBIrbwVsfuyC3R2ou0-41" style="edgeStyle=orthogonalEdgeStyle;rounded=0;orthogonalLoop=1;jettySize=auto;html=1;exitX=1;exitY=0.5;exitDx=0;exitDy=0;exitPerimeter=0;entryX=0;entryY=0.5;entryDx=0;entryDy=0;strokeColor=#D79B00;strokeWidth=4;" edge="1" parent="1" source="aXDBIrbwVsfuyC3R2ou0-34" target="aXDBIrbwVsfuyC3R2ou0-40">
          <mxGeometry relative="1" as="geometry" />
        </mxCell>
        <mxCell id="aXDBIrbwVsfuyC3R2ou0-34" value="&lt;span style=&quot;color: rgb(220 , 220 , 170) ; font-family: &amp;#34;consolas&amp;#34; , &amp;#34;courier new&amp;#34; , monospace ; font-size: 14px ; background-color: rgb(30 , 30 , 30)&quot;&gt;get_by_openo_prodgrp_edate&lt;/span&gt;" style="strokeWidth=2;html=1;shape=mxgraph.flowchart.database;whiteSpace=wrap;" vertex="1" parent="1">
          <mxGeometry x="-50" y="760" width="260" height="80" as="geometry" />
        </mxCell>
        <mxCell id="aXDBIrbwVsfuyC3R2ou0-44" style="edgeStyle=orthogonalEdgeStyle;rounded=0;orthogonalLoop=1;jettySize=auto;html=1;exitX=0.5;exitY=1;exitDx=0;exitDy=0;entryX=0.5;entryY=0;entryDx=0;entryDy=0;strokeColor=#00CC66;strokeWidth=4;" edge="1" parent="1" source="aXDBIrbwVsfuyC3R2ou0-40" target="aXDBIrbwVsfuyC3R2ou0-43">
          <mxGeometry relative="1" as="geometry" />
        </mxCell>
        <mxCell id="aXDBIrbwVsfuyC3R2ou0-48" style="edgeStyle=orthogonalEdgeStyle;rounded=0;orthogonalLoop=1;jettySize=auto;html=1;exitX=0.5;exitY=1;exitDx=0;exitDy=0;strokeColor=#00CC66;strokeWidth=4;" edge="1" parent="1" source="aXDBIrbwVsfuyC3R2ou0-40" target="aXDBIrbwVsfuyC3R2ou0-46">
          <mxGeometry relative="1" as="geometry" />
        </mxCell>
        <mxCell id="aXDBIrbwVsfuyC3R2ou0-49" style="edgeStyle=orthogonalEdgeStyle;rounded=0;orthogonalLoop=1;jettySize=auto;html=1;exitX=0.5;exitY=1;exitDx=0;exitDy=0;strokeColor=#00CC66;strokeWidth=4;" edge="1" parent="1" source="aXDBIrbwVsfuyC3R2ou0-40" target="aXDBIrbwVsfuyC3R2ou0-45">
          <mxGeometry relative="1" as="geometry" />
        </mxCell>
        <mxCell id="aXDBIrbwVsfuyC3R2ou0-40" value="N31_32.py" style="rounded=1;whiteSpace=wrap;html=1;fillColor=#6d8764;fontColor=#ffffff;strokeColor=#3A5431;" vertex="1" parent="1">
          <mxGeometry x="290" y="770" width="120" height="60" as="geometry" />
        </mxCell>
        <mxCell id="aXDBIrbwVsfuyC3R2ou0-43" value="&lt;div style=&quot;color: rgb(212 , 212 , 212) ; background-color: rgb(30 , 30 , 30) ; font-family: &amp;#34;consolas&amp;#34; , &amp;#34;courier new&amp;#34; , monospace ; font-size: 14px ; line-height: 19px&quot;&gt;&lt;span style=&quot;color: #dcdcaa&quot;&gt;save_trend_graph&lt;/span&gt;&lt;/div&gt;" style="rounded=1;whiteSpace=wrap;html=1;" vertex="1" parent="1">
          <mxGeometry x="10" y="880" width="210" height="60" as="geometry" />
        </mxCell>
        <mxCell id="aXDBIrbwVsfuyC3R2ou0-45" value="&lt;div style=&quot;color: rgb(212 , 212 , 212) ; background-color: rgb(30 , 30 , 30) ; font-family: &amp;#34;consolas&amp;#34; , &amp;#34;courier new&amp;#34; , monospace ; font-size: 14px ; line-height: 19px&quot;&gt;&lt;span style=&quot;color: #569cd6&quot;&gt;f&lt;/span&gt;&lt;span style=&quot;color: #ce9178&quot;&gt;&#39;&lt;/span&gt;&lt;span style=&quot;color: #569cd6&quot;&gt;{&lt;/span&gt;&lt;span style=&quot;color: #4ec9b0&quot;&gt;system_folder&lt;/span&gt;.&lt;span style=&quot;color: #9cdcfe&quot;&gt;WFREG_FOLDER&lt;/span&gt;&lt;span style=&quot;color: #569cd6&quot;&gt;}&lt;/span&gt;&lt;span style=&quot;color: #ce9178&quot;&gt;/&lt;/span&gt;&lt;span style=&quot;color: #569cd6&quot;&gt;{&lt;/span&gt;&lt;span style=&quot;color: #9cdcfe&quot;&gt;ope_no&lt;/span&gt;.replace(&lt;span style=&quot;color: #ce9178&quot;&gt;&quot; &quot;&lt;/span&gt;, &lt;span style=&quot;color: #ce9178&quot;&gt;&quot;_&quot;&lt;/span&gt;)&lt;span style=&quot;color: #569cd6&quot;&gt;}&lt;/span&gt;&lt;span style=&quot;color: #ce9178&quot;&gt;_testno&lt;/span&gt;&lt;span style=&quot;color: #569cd6&quot;&gt;{&lt;/span&gt;&lt;span style=&quot;color: #9cdcfe&quot;&gt;testno&lt;/span&gt;&lt;span style=&quot;color: #569cd6&quot;&gt;}&lt;/span&gt;&lt;span style=&quot;color: #ce9178&quot;&gt;_&lt;/span&gt;&lt;span style=&quot;color: #569cd6&quot;&gt;{&lt;/span&gt;&lt;span style=&quot;color: #9cdcfe&quot;&gt;cluster_no&lt;/span&gt;&lt;span style=&quot;color: #569cd6&quot;&gt;}&lt;/span&gt;&lt;span style=&quot;color: #ce9178&quot;&gt;.png&#39;&lt;/span&gt;&lt;/div&gt;" style="rounded=1;whiteSpace=wrap;html=1;" vertex="1" parent="1">
          <mxGeometry x="470" y="880" width="380" height="60" as="geometry" />
        </mxCell>
        <mxCell id="aXDBIrbwVsfuyC3R2ou0-46" value="&lt;div style=&quot;color: rgb(212 , 212 , 212) ; background-color: rgb(30 , 30 , 30) ; font-family: &amp;#34;consolas&amp;#34; , &amp;#34;courier new&amp;#34; , monospace ; font-size: 14px ; line-height: 19px&quot;&gt;&lt;span style=&quot;color: #dcdcaa&quot;&gt;save_wafer_single_image&lt;/span&gt;&lt;/div&gt;" style="rounded=1;whiteSpace=wrap;html=1;" vertex="1" parent="1">
          <mxGeometry x="240" y="880" width="220" height="60" as="geometry" />
        </mxCell>
        <mxCell id="aXDBIrbwVsfuyC3R2ou0-56" style="edgeStyle=orthogonalEdgeStyle;rounded=0;orthogonalLoop=1;jettySize=auto;html=1;exitX=1;exitY=0.5;exitDx=0;exitDy=0;entryX=0;entryY=0.5;entryDx=0;entryDy=0;strokeColor=#00CC66;strokeWidth=4;" edge="1" parent="1" source="aXDBIrbwVsfuyC3R2ou0-50" target="aXDBIrbwVsfuyC3R2ou0-54">
          <mxGeometry relative="1" as="geometry" />
        </mxCell>
        <mxCell id="aXDBIrbwVsfuyC3R2ou0-57" style="edgeStyle=orthogonalEdgeStyle;rounded=0;orthogonalLoop=1;jettySize=auto;html=1;exitX=1;exitY=0.5;exitDx=0;exitDy=0;entryX=0;entryY=0.5;entryDx=0;entryDy=0;strokeColor=#00CC66;strokeWidth=4;" edge="1" parent="1" source="aXDBIrbwVsfuyC3R2ou0-50" target="aXDBIrbwVsfuyC3R2ou0-55">
          <mxGeometry relative="1" as="geometry" />
        </mxCell>
        <mxCell id="aXDBIrbwVsfuyC3R2ou0-50" value="N35.py" style="rounded=1;whiteSpace=wrap;html=1;fillColor=#6d8764;fontColor=#ffffff;strokeColor=#3A5431;" vertex="1" parent="1">
          <mxGeometry x="620" y="550" width="120" height="60" as="geometry" />
        </mxCell>
        <mxCell id="aXDBIrbwVsfuyC3R2ou0-54" value="&lt;div style=&quot;color: rgb(212 , 212 , 212) ; background-color: rgb(30 , 30 , 30) ; font-family: &amp;#34;consolas&amp;#34; , &amp;#34;courier new&amp;#34; , monospace ; font-size: 14px ; line-height: 19px&quot;&gt;&lt;span style=&quot;color: #569cd6&quot;&gt;f&lt;/span&gt;&lt;span style=&quot;color: #ce9178&quot;&gt;&quot;&lt;/span&gt;&lt;span style=&quot;color: #569cd6&quot;&gt;{&lt;/span&gt;&lt;span style=&quot;color: #4ec9b0&quot;&gt;system_folder&lt;/span&gt;.&lt;span style=&quot;color: #9cdcfe&quot;&gt;YI_FOLDER&lt;/span&gt;&lt;span style=&quot;color: #569cd6&quot;&gt;}&lt;/span&gt;&lt;span style=&quot;color: #ce9178&quot;&gt;/&lt;/span&gt;&lt;span style=&quot;color: #569cd6&quot;&gt;{&lt;/span&gt;&lt;span style=&quot;color: #9cdcfe&quot;&gt;openo&lt;/span&gt;&lt;span style=&quot;color: #569cd6&quot;&gt;}&lt;/span&gt;&lt;span style=&quot;color: #ce9178&quot;&gt;_&lt;/span&gt;&lt;span style=&quot;color: #569cd6&quot;&gt;{&lt;/span&gt;&lt;span style=&quot;color: #9cdcfe&quot;&gt;testno&lt;/span&gt;&lt;span style=&quot;color: #569cd6&quot;&gt;}&lt;/span&gt;&lt;span style=&quot;color: #ce9178&quot;&gt;_real.csv&quot;&lt;/span&gt;&lt;/div&gt;" style="rounded=1;whiteSpace=wrap;html=1;" vertex="1" parent="1">
          <mxGeometry x="800" y="500" width="450" height="60" as="geometry" />
        </mxCell>
        <mxCell id="aXDBIrbwVsfuyC3R2ou0-55" value="&lt;div style=&quot;color: rgb(212 , 212 , 212) ; background-color: rgb(30 , 30 , 30) ; font-family: &amp;#34;consolas&amp;#34; , &amp;#34;courier new&amp;#34; , monospace ; font-size: 14px ; line-height: 19px&quot;&gt;&lt;span style=&quot;color: #569cd6&quot;&gt;f&lt;/span&gt;&lt;span style=&quot;color: #ce9178&quot;&gt;&quot;&lt;/span&gt;&lt;span style=&quot;color: #569cd6&quot;&gt;{&lt;/span&gt;&lt;span style=&quot;color: #4ec9b0&quot;&gt;system_folder&lt;/span&gt;.&lt;span style=&quot;color: #9cdcfe&quot;&gt;YI_FOLDER&lt;/span&gt;&lt;span style=&quot;color: #569cd6&quot;&gt;}&lt;/span&gt;&lt;span style=&quot;color: #ce9178&quot;&gt;/&lt;/span&gt;&lt;span style=&quot;color: #569cd6&quot;&gt;{&lt;/span&gt;&lt;span style=&quot;color: #9cdcfe&quot;&gt;openo&lt;/span&gt;&lt;span style=&quot;color: #569cd6&quot;&gt;}&lt;/span&gt;&lt;span style=&quot;color: #ce9178&quot;&gt;_&lt;/span&gt;&lt;span style=&quot;color: #569cd6&quot;&gt;{&lt;/span&gt;&lt;span style=&quot;color: #9cdcfe&quot;&gt;testno&lt;/span&gt;&lt;span style=&quot;color: #569cd6&quot;&gt;}&lt;/span&gt;&lt;span style=&quot;color: #ce9178&quot;&gt;_fake.csv&quot;&lt;/span&gt;&lt;/div&gt;" style="rounded=1;whiteSpace=wrap;html=1;" vertex="1" parent="1">
          <mxGeometry x="800" y="600" width="435" height="60" as="geometry" />
        </mxCell>
        <mxCell id="aXDBIrbwVsfuyC3R2ou0-66" style="edgeStyle=orthogonalEdgeStyle;rounded=0;orthogonalLoop=1;jettySize=auto;html=1;exitX=1;exitY=0.5;exitDx=0;exitDy=0;entryX=0;entryY=0.5;entryDx=0;entryDy=0;strokeColor=#00CC66;strokeWidth=4;" edge="1" parent="1" source="aXDBIrbwVsfuyC3R2ou0-58" target="aXDBIrbwVsfuyC3R2ou0-64">
          <mxGeometry relative="1" as="geometry" />
        </mxCell>
        <mxCell id="aXDBIrbwVsfuyC3R2ou0-58" value="N36.py" style="rounded=1;whiteSpace=wrap;html=1;fillColor=#6d8764;fontColor=#ffffff;strokeColor=#3A5431;" vertex="1" parent="1">
          <mxGeometry x="720" y="400" width="120" height="60" as="geometry" />
        </mxCell>
        <mxCell id="aXDBIrbwVsfuyC3R2ou0-63" style="edgeStyle=orthogonalEdgeStyle;rounded=0;orthogonalLoop=1;jettySize=auto;html=1;exitX=0.5;exitY=1;exitDx=0;exitDy=0;entryX=0.5;entryY=0;entryDx=0;entryDy=0;strokeColor=#D79B00;strokeWidth=4;" edge="1" parent="1" source="aXDBIrbwVsfuyC3R2ou0-59" target="aXDBIrbwVsfuyC3R2ou0-58">
          <mxGeometry relative="1" as="geometry" />
        </mxCell>
        <mxCell id="aXDBIrbwVsfuyC3R2ou0-59" value="&#xa;&#xa;&lt;div style=&quot;color: rgb(212, 212, 212); background-color: rgb(30, 30, 30); font-family: consolas, &amp;quot;courier new&amp;quot;, monospace; font-weight: normal; font-size: 14px; line-height: 19px;&quot;&gt;&lt;div&gt;&lt;span style=&quot;color: #4ec9b0&quot;&gt;pd&lt;/span&gt;&lt;span style=&quot;color: #d4d4d4&quot;&gt;.&lt;/span&gt;&lt;span style=&quot;color: #dcdcaa&quot;&gt;read_csv&lt;/span&gt;&lt;span style=&quot;color: #d4d4d4&quot;&gt;(&lt;/span&gt;&lt;span style=&quot;color: #4ec9b0&quot;&gt;input_file&lt;/span&gt;&lt;span style=&quot;color: #d4d4d4&quot;&gt;.&lt;/span&gt;&lt;span style=&quot;color: #9cdcfe&quot;&gt;PICKUP&lt;/span&gt;&lt;/div&gt;&lt;/div&gt;&#xa;&#xa;" style="rounded=1;whiteSpace=wrap;html=1;" vertex="1" parent="1">
          <mxGeometry x="653" y="290" width="255" height="60" as="geometry" />
        </mxCell>
        <mxCell id="aXDBIrbwVsfuyC3R2ou0-64" value="&lt;div style=&quot;color: rgb(212 , 212 , 212) ; background-color: rgb(30 , 30 , 30) ; font-family: &amp;#34;consolas&amp;#34; , &amp;#34;courier new&amp;#34; , monospace ; font-size: 14px ; line-height: 19px&quot;&gt;&lt;span style=&quot;color: #9cdcfe&quot;&gt;tracemap_file&lt;/span&gt; = &lt;span style=&quot;color: #ce9178&quot;&gt;&quot;../data/input_data/BiCS6/A/map_tracking/tracemap.csv&quot;&lt;/span&gt;&lt;/div&gt;" style="rounded=1;whiteSpace=wrap;html=1;" vertex="1" parent="1">
          <mxGeometry x="890" y="400" width="470" height="60" as="geometry" />
        </mxCell>
      </root>
    </mxGraphModel>
  </diagram>
</mxfile>
